<svg xmlns="http://www.w3.org/2000/svg" xmlns:xlink="http://www.w3.org/1999/xlink" width="27" height="28" viewBox="0 0 27 28">
    <defs>
        <path id="b" d="M142 168h420v377H142z"/>
        <filter id="a" width="107.1%" height="108%" x="-3.6%" y="-4%" filterUnits="objectBoundingBox">
            <feOffset in="SourceAlpha" result="shadowOffsetOuter1"/>
            <feGaussianBlur in="shadowOffsetOuter1" result="shadowBlurOuter1" stdDeviation="5"/>
            <feComposite in="shadowBlurOuter1" in2="SourceAlpha" operator="out" result="shadowBlurOuter1"/>
            <feColorMatrix in="shadowBlurOuter1" values="0 0 0 0 0 0 0 0 0 0 0 0 0 0 0 0 0 0 0.3 0"/>
        </filter>
    </defs>
    <g fill="none" fill-rule="evenodd">
        <g stroke="#DCDEDF">
            <path d="M-153.5-20.5v63h574v-63h-574z"/>
            <path d="M-181.5-104.5h656v414h-656z"/>
        </g>
        <g transform="translate(-205 -236)">
            <use fill="#000" filter="url(#a)" xlink:href="#b"/>
            <path fill="#FFF" stroke="#DCDEDF" stroke-linejoin="square" d="M142.5 168.5v376h419v-376h-419z"/>
        </g>
        <path fill="#39BD45" d="M13.773 20.513c.651 0 1.287-.09 1.888-.26l-3.943 6.868C5.088 26.124 0 20.371 0 13.426c0-2.467.64-4.783 1.768-6.79l5.622 9.796c1.175 2.496 3.658 4.083 6.383 4.08"/>
        <path fill="#FDD016" d="M13.378 27.427l5.617-9.66c.793-1.145 1.23-2.234 1.23-3.733 0-1.981-1.96-4.867-1.96-4.867h7.726c.614 0 1.009 3.157 1.009 4.944 0 7.595-6.09 13.231-13.622 13.316"/>
        <path fill="#2793DB" d="M8.5 13.423c0-2.773 2.243-5.03 5.004-5.03 2.76 0 5.002 2.255 5.002 5.03 0 2.773-2.246 5.032-5.002 5.032-2.758 0-5.004-2.256-5.004-5.032"/>
        <path fill="#F83523" d="M6.68 12.042L2.738 5.137C5.262 1.959 9.148 0 13.504 0c5.042 0 9.449 2.994 11.849 6.947H14.116c-.202 0-6.562 0-7.437 5.095"/>
    </g>
</svg>
